<?xml version="1.0" encoding="UTF-8" standalone="no"?>
<svg
   width="43.740063mm"
   height="42.314636mm"
   viewBox="0 0 43.740063 42.314636"
   version="1.1"
   id="svg1389"
   sodipodi:docname="logo_HSL_simple.svg"
   inkscape:version="1.1.1 (3bf5ae0d25, 2021-09-20)"
   xmlns:inkscape="http://www.inkscape.org/namespaces/inkscape"
   xmlns:sodipodi="http://sodipodi.sourceforge.net/DTD/sodipodi-0.dtd"
   xmlns="http://www.w3.org/2000/svg"
   xmlns:svg="http://www.w3.org/2000/svg"
   xmlns:rdf="http://www.w3.org/1999/02/22-rdf-syntax-ns#"
   xmlns:cc="http://creativecommons.org/ns#"
   xmlns:dc="http://purl.org/dc/elements/1.1/">
  <sodipodi:namedview
     id="namedview888"
     pagecolor="#ffffff"
     bordercolor="#666666"
     borderopacity="1.0"
     inkscape:pageshadow="2"
     inkscape:pageopacity="0.0"
     inkscape:pagecheckerboard="0"
     inkscape:document-units="mm"
     showgrid="false"
     inkscape:zoom="5.0084621"
     inkscape:cx="82.660105"
     inkscape:cy="79.964667"
     inkscape:window-width="1920"
     inkscape:window-height="1009"
     inkscape:window-x="-8"
     inkscape:window-y="-8"
     inkscape:window-maximized="1"
     inkscape:current-layer="svg1389" />
  <defs
     id="defs1383" />
  <metadata
     id="metadata1386">
    <rdf:RDF>
      <cc:Work
         rdf:about="">
        <dc:format>image/svg+xml</dc:format>
        <dc:type
           rdf:resource="http://purl.org/dc/dcmitype/StillImage" />
      </cc:Work>
    </rdf:RDF>
  </metadata>
  <rect
     style="fill:#287528;fill-opacity:1;stroke:#332d00;stroke-width:0.324034;stroke-miterlimit:4;stroke-dasharray:none;stroke-opacity:1"
     id="rect1992"
     width="10.004279"
     height="10.596682"
     x="16.544497"
     y="7.3242006"
     transform="rotate(-10.037912)" />
  <g
     aria-label="D"
     transform="rotate(-10.146595,-785.42321,241.40255)"
     id="text2123"
     style="font-size:10.5833px;line-height:1.25;font-family:'DejaVu Sans Mono';-inkscape-font-specification:'DejaVu Sans Mono';letter-spacing:6.61458px;fill:#ffffff;stroke-width:0.264583">
    <path
       d="m 49.713609,151.19478 h 1.436601 q 1.431432,0 2.294426,0.97668 0.862994,0.97151 0.862994,2.67166 0,1.73632 -0.878497,2.69233 -0.873329,0.95085 -2.24275,0.95085 h -1.472774 z m 0.847491,6.55255 h 0.599445 q 1.038693,0 1.643305,-0.76998 0.604613,-0.76998 0.604613,-2.13423 0,-1.35392 -0.60978,-2.12906 -0.604613,-0.78031 -1.638138,-0.78031 H 50.5611 Z"
       id="path1276" />
  </g>
  <rect
     transform="rotate(6.0965961)"
     y="14.338796"
     x="6.9023128"
     height="10.949815"
     width="10.33767"
     id="rect1992-2"
     style="fill:#287528;fill-opacity:1;stroke:#332d00;stroke-width:0.334833;stroke-miterlimit:4;stroke-dasharray:none;stroke-opacity:1" />
  <g
     aria-label="Å"
     transform="rotate(7.6883937,974.08945,-475.1475)"
     id="text2127"
     style="font-size:10.5833px;line-height:1.25;font-family:'DejaVu Sans Mono';-inkscape-font-specification:'DejaVu Sans Mono';letter-spacing:6.61458px;fill:#ffffff;stroke-width:0.264583">
    <path
       d="m 86.993875,149.14369 h -3.968738 v -2.74918 l -0.527098,0.3359 -0.372069,-0.5581 0.899167,-0.58395 v -3.73619 h 0.847491 v 3.18326 l 1.4366,-0.93017 0.372069,0.56327 -1.808669,1.17305 v 2.56314 h 3.121247 z"
       id="path1255" />
  </g>
  <path
     style="fill:none;stroke:#000000;stroke-width:0.265;stroke-linecap:round;stroke-linejoin:round;stroke-miterlimit:4;stroke-dasharray:none;stroke-opacity:1"
     d="m 18.613981,25.48761 -6.408048,-15.25558 15.928861,6.96822 -3.142015,7.08999 z"
     id="path2174" />
  <rect
     style="fill:#287528;fill-opacity:1;stroke:#332d00;stroke-width:0.326201;stroke-miterlimit:4;stroke-dasharray:none;stroke-opacity:1"
     id="rect1992-2-9"
     width="10.071169"
     height="10.667533"
     x="31.976072"
     y="12.064438"
     transform="rotate(5.2776396)" />
  <g
     aria-label="Z"
     transform="rotate(5.8477067,1290.1652,-603.8673)"
     id="text2131"
     style="font-size:10.5833px;line-height:1.25;font-family:'DejaVu Sans Mono';-inkscape-font-specification:'DejaVu Sans Mono';letter-spacing:6.61458px;fill:#ffffff;stroke-width:0.264583">
    <path
       d="m 107.35542,142.48826 -3.46748,5.94794 h 3.40547 v 0.73897 h -4.37182 v -0.59428 l 3.45198,-5.95827 h -3.30211 v -0.73897 h 4.28396 z"
       id="path1192" />
  </g>
  <path
     id="path2176"
     d="M 6.452494,29.20789 22.792509,21.12047 32.327346,7.11741 32.075326,16.8792 28.377831,27.46717 13.731195,30.69179 Z"
     style="fill:none;stroke:#000000;stroke-width:0.264583px;stroke-linecap:round;stroke-linejoin:round;stroke-opacity:1" />
  <rect
     style="fill:#287528;fill-opacity:1;stroke:#332d00;stroke-width:0.31896;stroke-miterlimit:4;stroke-dasharray:none;stroke-opacity:1"
     id="rect1992-2-9-3-9"
     width="9.8476248"
     height="10.430751"
     x="18.994959"
     y="29.395063"
     transform="rotate(-0.2096375)" />
  <g
     aria-label="H"
     transform="rotate(0.32458539,23730.416,-9742.513)"
     id="text2135"
     style="font-size:10.5833px;line-height:1.25;font-family:'DejaVu Sans Mono';-inkscape-font-specification:'DejaVu Sans Mono';letter-spacing:6.61458px;fill:#ffffff;stroke-width:0.264583">
    <path
       d="m 81.850706,172.61911 h -0.84749 v -3.61734 h -2.495964 v 3.61734 h -0.847491 v -7.29152 h 0.847491 v 2.93004 h 2.495964 v -2.93004 h 0.84749 z"
       id="path1234" />
  </g>
  <rect
     transform="rotate(0.00787783)"
     y="29.231123"
     x="30.060663"
     height="10.434145"
     width="9.8508272"
     id="rect1992-2-9-3"
     style="fill:#287528;fill-opacity:1;stroke:#332d00;stroke-width:0.319065;stroke-miterlimit:4;stroke-dasharray:none;stroke-opacity:1" />
  <g
     aria-label="S"
     id="text2139"
     style="font-size:10.5833px;line-height:1.25;font-family:'DejaVu Sans Mono';-inkscape-font-specification:'DejaVu Sans Mono';letter-spacing:6.61458px;fill:#ffffff;stroke-width:0.264583"
     transform="translate(-54.811066,-134.59041)">
    <path
       d="m 91.114998,166.33555 q -0.651121,-0.22221 -1.235063,-0.22221 -0.661456,0 -1.080034,0.30489 -0.41341,0.29973 -0.41341,0.85783 0,0.66146 1.090369,1.16272 0.80615,0.37206 1.064531,0.51676 0.263549,0.14469 0.532266,0.39791 0.268717,0.25321 0.428913,0.59944 0.165364,0.34106 0.165364,0.76998 0,1.06453 -0.7183,1.65364 -0.713132,0.58394 -1.684646,0.58394 -0.940508,0 -1.648473,-0.37207 l 0.175699,-0.72864 q 0.831988,0.37724 1.452103,0.37724 0.723468,0 1.157549,-0.37207 0.439248,-0.37723 0.439248,-1.03352 0,-0.48576 -0.28422,-0.82166 -0.284219,-0.34106 -1.049028,-0.69246 -0.785479,-0.36173 -1.018022,-0.49092 -0.227376,-0.13436 -0.454751,-0.3669 -0.227376,-0.23255 -0.351399,-0.52193 -0.124023,-0.28939 -0.124023,-0.63045 0,-0.90434 0.651121,-1.41077 0.651121,-0.50642 1.648473,-0.50642 0.728635,0 1.446935,0.2222 z"
       id="path1213" />
  </g>
</svg>
